<svg xmlns="http://www.w3.org/2000/svg" id="Layer_1" viewBox="0 0 148.09 43.78"><defs><style>      .cls-1 {        fill: #fff;      }      .cls-2 {        fill: #863329;      }      .cls-3 {        stroke-width: .36px;      }      .cls-3, .cls-4 {        stroke: #863329;      }      .cls-3, .cls-4, .cls-5 {        fill: none;      }      .cls-3, .cls-5 {        stroke-linecap: round;        stroke-linejoin: round;      }      .cls-4 {        stroke-miterlimit: 10;        stroke-width: .53px;      }      .cls-5 {        stroke: #fff;        stroke-width: .18px;      }    </style></defs><line class="cls-4" x1="147.57" y1="31.25" x2="137.84" y2="31.25"></line><path class="cls-2" d="M56.15,17.91h-2.79v4.17h-1.52v-12.45h4.52c2.16,0,4.15,1.56,4.15,4.14,0,2.02-1.22,3.4-2.77,3.93l2.86,4.38h-1.76l-2.7-4.17h.01ZM53.36,16.49h3.01c1.39,0,2.62-1.02,2.62-2.72s-1.23-2.72-2.62-2.72h-3.01v5.44h0Z"></path><polygon class="cls-2" points="62.7 9.64 64.24 9.64 64.24 22.09 62.7 22.09 62.7 9.64 62.7 9.64 62.7 9.64"></polygon><path class="cls-2" d="M78.7,15.42c0,4.11-2.56,6.83-6.35,6.83s-6.26-2.91-6.26-6.39,2.62-6.39,6.43-6.39c2.24,0,3.88,1.05,5.02,2.59l-1.18.88c-.8-1.12-2.06-2.05-3.85-2.05-2.85,0-4.88,2.23-4.88,4.98s1.97,4.98,4.72,4.98c2.56,0,4.35-1.67,4.75-4h-5.08v-1.42h6.7-.02Z"></path><polygon class="cls-2" points="90.1 9.64 90.1 22.09 88.56 22.09 88.56 16.51 81.83 16.51 81.83 22.09 80.31 22.09 80.31 9.64 81.83 9.64 81.83 15.09 88.56 15.09 88.56 9.64 90.1 9.64 90.1 9.64 90.1 9.64"></polygon><polygon class="cls-2" points="99.24 11.05 96.12 11.05 96.12 22.08 94.58 22.08 94.58 11.05 91.46 11.05 91.46 9.64 99.23 9.64 99.23 11.05 99.24 11.05 99.24 11.05"></polygon><polygon class="cls-2" points="118.74 9.64 114.68 22.09 112.85 22.09 109.58 12.04 106.3 22.09 104.48 22.09 100.42 9.64 101.99 9.64 105.39 20.1 108.78 9.64 110.36 9.64 113.75 20.1 117.15 9.64 118.73 9.64 118.74 9.64 118.74 9.64"></polygon><path class="cls-2" d="M125.48,19.01h-5.45l-1.12,3.07h-1.6l4.57-12.45h1.74l4.57,12.45h-1.6l-1.12-3.07h.01ZM124.94,17.6l-2.2-5.99-2.2,5.99h4.4-.01Z"></path><polygon class="cls-2" points="136.6 20.66 136.6 22.08 129.88 22.08 129.88 9.63 131.42 9.63 131.42 20.65 136.6 20.65 136.6 20.66 136.6 20.66"></polygon><polygon class="cls-2" points="142.4 15.43 147.57 22.08 145.75 22.08 141.43 16.56 139.9 18.26 139.9 22.08 138.36 22.08 138.36 9.63 139.9 9.63 139.9 16.02 145.59 9.63 147.57 9.63 142.4 15.43 142.4 15.43 142.4 15.43"></polygon><polygon class="cls-2" points="66.84 27.8 66.84 30.83 69.89 30.83 69.89 31.37 66.84 31.37 66.84 35.38 66.29 35.38 66.29 27.28 70.52 27.28 70.52 27.8 66.84 27.8 66.84 27.8 66.84 27.8"></polygon><path class="cls-2" d="M71.15,31.34c0-2.29,1.78-4.17,4.14-4.17s4.15,1.88,4.15,4.17-1.8,4.17-4.15,4.17-4.14-1.89-4.14-4.17h0ZM78.86,31.34c0-1.98-1.57-3.64-3.58-3.64s-3.58,1.66-3.58,3.64,1.59,3.64,3.58,3.64,3.58-1.66,3.58-3.64h0Z"></path><path class="cls-2" d="M83.83,35.51c-1.84,0-3.1-1.05-3.1-3.3v-4.92h.56v4.92c0,1.97,1.07,2.77,2.54,2.77s2.53-.8,2.53-2.77v-4.92h.56v4.92c0,2.25-1.25,3.3-3.09,3.3h0Z"></path><polygon class="cls-2" points="94.73 27.28 94.73 35.38 94.17 35.38 88.99 28.21 88.99 35.38 88.43 35.38 88.43 27.28 88.99 27.28 94.17 34.45 94.17 27.28 94.73 27.28 94.73 27.28 94.73 27.28"></polygon><path class="cls-2" d="M102.58,31.34c0,2.27-1.51,4.05-3.87,4.05h-2.5v-8.11h2.5c2.36,0,3.87,1.78,3.87,4.05h0ZM102.01,31.34c0-2.05-1.35-3.53-3.31-3.53h-1.94v7.06h1.94c1.96,0,3.31-1.48,3.31-3.53h0Z"></path><path class="cls-2" d="M108.08,33.18h-3.79l-.81,2.22h-.58l2.99-8.11h.62l2.99,8.11h-.58l-.81-2.22h-.02ZM107.89,32.65l-1.7-4.63-1.7,4.63h3.41Z"></path><polygon class="cls-2" points="114.25 27.8 112.14 27.8 112.14 35.38 111.58 35.38 111.58 27.8 109.48 27.8 109.48 27.28 114.25 27.28 114.25 27.8 114.25 27.8 114.25 27.8"></polygon><polygon class="cls-2" points="115.35 27.28 115.91 27.28 115.91 35.38 115.35 35.38 115.35 27.28 115.35 27.28 115.35 27.28"></polygon><path class="cls-2" d="M117.3,31.34c0-2.29,1.78-4.17,4.14-4.17s4.15,1.88,4.15,4.17-1.8,4.17-4.15,4.17-4.14-1.89-4.14-4.17h0ZM125.01,31.34c0-1.98-1.57-3.64-3.58-3.64s-3.58,1.66-3.58,3.64,1.59,3.64,3.58,3.64,3.58-1.66,3.58-3.64h0Z"></path><polygon class="cls-2" points="133.24 27.28 133.24 35.38 132.68 35.38 127.5 28.21 127.5 35.38 126.94 35.38 126.94 27.28 127.5 27.28 132.68 34.45 132.68 27.28 133.24 27.28 133.24 27.28 133.24 27.28"></polygon><line class="cls-4" x1="61.57" y1="31.25" x2="51.84" y2="31.25"></line><path class="cls-2" d="M22.29.45C10.24.45.46,10.04.46,21.85c0,7.48,3.91,14.05,9.83,17.88l.4-15.39h4.57l.46,17.92c2.08.64,4.29.99,6.58.99,12.06,0,21.83-9.59,21.83-21.4S34.35.45,22.29.45h0Z"></path><path class="cls-1" d="M12.86,6.14s4.88-1.46,9.18.06c4.26,1.52,9.39,9.82-1.99,16.3l13.95,14.61s11.33-7.37,6.8-21.43c-1.11-3.46-3.37-6.48-6.21-8.81-4.4-3.6-12.42-7.66-21.73-.75h0Z"></path><path class="cls-5" d="M12.86,6.14s4.88-1.46,9.18.06c4.26,1.52,9.39,9.82-1.99,16.3l13.95,14.61s11.33-7.37,6.8-21.43c-1.11-3.46-3.37-6.48-6.21-8.81-4.4-3.6-12.42-7.66-21.73-.75h0Z"></path><line class="cls-3" x1="12.96" y1="12.68" x2="12.96" y2="23.15"></line><path class="cls-1" d="M12.85,6.17s-1.7,7.62-4.21,10.19l2.05,6.8h4.49l2.1-6.8c-2.57-2.56-4.44-10.19-4.44-10.19h.01Z"></path><path class="cls-5" d="M12.85,6.17s-1.7,7.62-4.21,10.19l2.05,6.8h4.49l2.1-6.8c-2.57-2.56-4.44-10.19-4.44-10.19h.01Z"></path><path class="cls-2" d="M14.57,17.95c0,.88-.71,1.59-1.6,1.59s-1.6-.71-1.6-1.59.71-1.59,1.6-1.59,1.6.71,1.6,1.59h0Z"></path><line class="cls-3" x1="12.96" y1="12.7" x2="12.96" y2="23.17"></line><path class="cls-1" d="M10.69,24.34l-.4,15.39c1.66,1.07,3.48,1.93,5.42,2.53l-.46-17.92h-4.57.01Z"></path><path class="cls-5" d="M10.69,24.34l-.4,15.39c1.66,1.07,3.48,1.93,5.42,2.53l-.46-17.92h-4.57.01Z"></path></svg>
